<svg xmlns="http://www.w3.org/2000/svg" width="38" height="38" viewBox="0 0 38 38">
  <g id="Behance_w" transform="translate(-272 -243)">
    <circle id="Ellipse_73" data-name="Ellipse 73" cx="15.68" cy="15.68" r="15.68" transform="translate(275 246)" fill="#fff"/>
    <rect id="Rectangle_226" data-name="Rectangle 226" width="38" height="38" transform="translate(272 243)" fill="none"/>
    <g id="iconfinder_77-behance_104426" transform="translate(275 246)">
      <path id="Path_11" data-name="Path 11" d="M36.718,27.257a2.339,2.339,0,0,0-2.3,2.017h4.3A1.946,1.946,0,0,0,36.718,27.257Z" transform="translate(-14.873 -13.15)" fill="#adacac"/>
      <path id="Path_12" data-name="Path 12" d="M20.548,30.425H16.739v3.5h3.372c.057,0,.143,0,.244,0,.542-.013,1.571-.171,1.571-1.7C21.926,30.407,20.548,30.425,20.548,30.425Z" transform="translate(-8.452 -14.301)" fill="#adacac"/>
      <path id="Path_13" data-name="Path 13" d="M19.4,5.1A15.678,15.678,0,1,0,35.08,20.779,15.678,15.678,0,0,0,19.4,5.1Zm3.3,9.633h5.4v1.611H22.7Zm-2.728,8.45c0,3.993-4.155,3.861-4.155,3.861H9.012V13.964h6.808c2.068,0,3.7,1.142,3.7,3.483a2.271,2.271,0,0,1-2,2.49C20.155,19.936,19.974,23.185,19.974,23.185Zm10.1-.214H23.292a2.128,2.128,0,0,0,2.3,2.277c2.174,0,2.1-1.408,2.1-1.408h2.3c0,3.736-4.478,3.48-4.478,3.48a4.641,4.641,0,0,1-5.026-5s-.005-5.026,5.026-5.026C30.812,17.293,30.071,22.971,30.071,22.971Z" transform="translate(-3.723 -5.101)" fill="#adacac"/>
      <path id="Path_14" data-name="Path 14" d="M21.473,24.034c0-1.361-.925-1.361-.925-1.361H16.739v2.919h3.573C20.928,25.592,21.473,25.394,21.473,24.034Z" transform="translate(-8.452 -11.485)" fill="#adacac"/>
    </g>
  </g>
</svg>
