<svg xmlns="http://www.w3.org/2000/svg" width="300.294" height="31.917" viewBox="0 0 300.294 31.917">
  <g id="Group_202" data-name="Group 202" transform="translate(-2972.438 586.959)">
    <path id="Path_382" data-name="Path 382" d="M-.117,24.76A3.275,3.275,0,0,1-1.562,24.5V23.08a5.305,5.305,0,0,0,1.445.2,1.83,1.83,0,0,0,1.47-.586A2.523,2.523,0,0,0,1.855,21V6.723h1.66V20.863a4.1,4.1,0,0,1-.937,2.876A3.477,3.477,0,0,1-.117,24.76Zm18.6-18.037v9.238A5.032,5.032,0,0,1,17.011,19.8a5.655,5.655,0,0,1-4.053,1.4,5.406,5.406,0,0,1-3.989-1.406,5.216,5.216,0,0,1-1.411-3.867v-9.2h1.66v9.316a3.67,3.67,0,0,0,.977,2.744,3.941,3.941,0,0,0,2.871.957,3.8,3.8,0,0,0,2.783-.962,3.7,3.7,0,0,0,.977-2.759v-9.3ZM30.722,17.2a3.5,3.5,0,0,1-1.367,2.939A5.928,5.928,0,0,1,25.644,21.2a9.3,9.3,0,0,1-3.906-.654v-1.6a10.284,10.284,0,0,0,1.914.586,10.071,10.071,0,0,0,2.051.215,4.138,4.138,0,0,0,2.5-.63,2.067,2.067,0,0,0,.84-1.753,2.25,2.25,0,0,0-.3-1.216,2.767,2.767,0,0,0-1-.874,13.935,13.935,0,0,0-2.124-.908,6.78,6.78,0,0,1-2.847-1.689,3.73,3.73,0,0,1-.854-2.549,3.17,3.17,0,0,1,1.24-2.627,5.154,5.154,0,0,1,3.281-.977,9.67,9.67,0,0,1,3.916.781l-.518,1.445A8.85,8.85,0,0,0,26.405,8a3.327,3.327,0,0,0-2.061.566,1.867,1.867,0,0,0-.742,1.572,2.41,2.41,0,0,0,.273,1.216,2.574,2.574,0,0,0,.923.869,11.466,11.466,0,0,0,1.987.874,7.868,7.868,0,0,1,3.091,1.719A3.38,3.38,0,0,1,30.722,17.2ZM38.436,21h-1.66V8.2H32.255V6.723h10.7V8.2H38.436Zm7.07,0V6.723h1.66V21Zm17.129,0H60.74l-7.8-11.982h-.078q.156,2.109.156,3.867V21H51.482V6.723h1.875l7.783,11.934h.078q-.02-.264-.088-1.694t-.049-2.046V6.723h1.553ZM74.92,21H66.961V6.723H74.92V8.2h-6.3v4.6h5.918v1.465H68.621v5.254h6.3ZM90.192,8a4.668,4.668,0,0,0-3.716,1.567,6.322,6.322,0,0,0-1.362,4.292,6.448,6.448,0,0,0,1.313,4.331,4.669,4.669,0,0,0,3.745,1.528,12.787,12.787,0,0,0,3.408-.537v1.455a10.5,10.5,0,0,1-3.662.557,6.2,6.2,0,0,1-4.868-1.914,7.882,7.882,0,0,1-1.714-5.439,8.585,8.585,0,0,1,.825-3.867,5.924,5.924,0,0,1,2.383-2.559,7.212,7.212,0,0,1,3.667-.9,8.848,8.848,0,0,1,3.926.82l-.7,1.426A7.567,7.567,0,0,0,90.192,8Zm15.879,13-1.777-4.541H98.571L96.813,21h-1.68l5.645-14.336h1.4L107.789,21Zm-2.295-6.035-1.66-4.424q-.322-.84-.664-2.061a18.5,18.5,0,0,1-.615,2.061l-1.68,4.424Zm8.037.1V21h-1.66V6.723h3.916a6.162,6.162,0,0,1,3.882,1.006,3.647,3.647,0,0,1,1.255,3.027,3.792,3.792,0,0,1-2.871,3.828L120.211,21h-1.963l-3.457-5.937Zm0-1.426h2.275a3.929,3.929,0,0,0,2.578-.7,2.6,2.6,0,0,0,.82-2.095,2.384,2.384,0,0,0-.835-2.041,4.524,4.524,0,0,0-2.681-.625h-2.158Zm12.763,1.426V21h-1.66V6.723h3.916a6.162,6.162,0,0,1,3.882,1.006,3.647,3.647,0,0,1,1.255,3.027,3.792,3.792,0,0,1-2.871,3.828L132.974,21h-1.963l-3.457-5.937Zm0-1.426h2.275a3.929,3.929,0,0,0,2.578-.7,2.6,2.6,0,0,0,.82-2.095,2.384,2.384,0,0,0-.835-2.041,4.524,4.524,0,0,0-2.681-.625h-2.158Z" transform="translate(2974 -585)"/>
    <path id="Path_383" data-name="Path 383" d="M12.52,6.723v9.238a5.119,5.119,0,0,1-1.426,3.848A5.461,5.461,0,0,1,7.119,21.2,5.234,5.234,0,0,1,3.247,19.8a5.247,5.247,0,0,1-1.392-3.882v-9.2H2.861v9.238A4.347,4.347,0,0,0,4,19.169a4.361,4.361,0,0,0,3.232,1.147A4.268,4.268,0,0,0,10.4,19.188a4.241,4.241,0,0,0,1.123-3.13V6.723ZM25.546,21H24.4l-4.219-6.66L15.888,21h-1.1l4.8-7.441L15.224,6.723h1.123L20.2,12.836l3.916-6.113h1.064l-4.424,6.816ZM44.061,6.723v9.238a5.119,5.119,0,0,1-1.426,3.848A5.461,5.461,0,0,1,38.661,21.2,5.234,5.234,0,0,1,34.789,19.8,5.247,5.247,0,0,1,33.4,15.922v-9.2H34.4v9.238a4.347,4.347,0,0,0,1.143,3.208,4.361,4.361,0,0,0,3.232,1.147,4.268,4.268,0,0,0,3.164-1.128,4.241,4.241,0,0,0,1.123-3.13V6.723ZM48.348,21V6.723h1V21Zm21.874-7.275a7.266,7.266,0,0,1-1.885,5.435A7.615,7.615,0,0,1,62.8,21H59.382V6.723H63.24a7.034,7.034,0,0,1,5.2,1.787A7.077,7.077,0,0,1,70.222,13.725Zm-1.084.039a6.239,6.239,0,0,0-1.558-4.614A6.226,6.226,0,0,0,63.005,7.6H60.379v12.52h2.363Q69.138,20.121,69.138,13.764ZM77.946,21.2a4.625,4.625,0,0,1-3.608-1.426,5.73,5.73,0,0,1-1.294-3.994,6.227,6.227,0,0,1,1.25-4.067,4.126,4.126,0,0,1,3.369-1.528,3.638,3.638,0,0,1,2.959,1.309,5.4,5.4,0,0,1,1.084,3.555v.781H74.06a5.022,5.022,0,0,0,1.021,3.34,3.592,3.592,0,0,0,2.866,1.152,8.89,8.89,0,0,0,1.6-.127,9.7,9.7,0,0,0,1.743-.547v.879a7.775,7.775,0,0,1-1.66.532A9.214,9.214,0,0,1,77.946,21.2Zm-.283-10.156A3.18,3.18,0,0,0,75.2,12.05a4.767,4.767,0,0,0-1.084,2.915h6.563a4.629,4.629,0,0,0-.8-2.886A2.641,2.641,0,0,0,77.663,11.039Zm13.955,7.2a2.523,2.523,0,0,1-1.084,2.192,5.276,5.276,0,0,1-3.076.767,7.336,7.336,0,0,1-3.379-.654V19.5a7.457,7.457,0,0,0,3.379.8,4.457,4.457,0,0,0,2.388-.522,1.588,1.588,0,0,0,.815-1.392,1.7,1.7,0,0,0-.649-1.348,7.141,7.141,0,0,0-2.134-1.074,12.222,12.222,0,0,1-2.236-.991,3.09,3.09,0,0,1-.972-.937,2.355,2.355,0,0,1-.327-1.274,2.177,2.177,0,0,1,1-1.885,4.863,4.863,0,0,1,2.8-.693,8.377,8.377,0,0,1,3.262.645l-.361.879a7.649,7.649,0,0,0-2.9-.645,4.2,4.2,0,0,0-2.061.43,1.319,1.319,0,0,0-.762,1.191,1.649,1.649,0,0,0,.591,1.328,8.237,8.237,0,0,0,2.31,1.113,11.364,11.364,0,0,1,2.09.933,3.038,3.038,0,0,1,.981.942A2.3,2.3,0,0,1,91.618,18.236ZM95.719,21h-.967V10.385h.967Zm-1.1-13.564q0-.937.615-.937a.546.546,0,0,1,.474.244,1.2,1.2,0,0,1,.171.693,1.228,1.228,0,0,1-.171.693.541.541,0,0,1-.474.254Q94.616,8.383,94.616,7.436Zm13.339,2.949v.674l-2.2.137a3.75,3.75,0,0,1,.879,2.4,3.242,3.242,0,0,1-1.021,2.485,3.855,3.855,0,0,1-2.739.952,5.955,5.955,0,0,1-1.016-.059,2.526,2.526,0,0,0-.879.713,1.439,1.439,0,0,0-.3.869.8.8,0,0,0,.386.742,2.628,2.628,0,0,0,1.294.234h1.855a4.308,4.308,0,0,1,2.646.7,2.433,2.433,0,0,1,.918,2.065,2.94,2.94,0,0,1-1.362,2.593,6.948,6.948,0,0,1-3.882.913,5.342,5.342,0,0,1-3.1-.771,2.479,2.479,0,0,1-1.1-2.148,2.549,2.549,0,0,1,.679-1.816,3.517,3.517,0,0,1,1.841-.986,1.872,1.872,0,0,1-.767-.581,1.382,1.382,0,0,1-.288-.864,2.272,2.272,0,0,1,1.357-1.875,3.026,3.026,0,0,1-1.445-1.2A3.414,3.414,0,0,1,99.2,13.7a3.361,3.361,0,0,1,1.011-2.554,3.8,3.8,0,0,1,2.729-.962,5.032,5.032,0,0,1,1.621.205ZM99.361,22.8q0,2.188,3.252,2.188,4.18,0,4.18-2.666a1.536,1.536,0,0,0-.654-1.387,3.984,3.984,0,0,0-2.119-.43h-1.738Q99.361,20.5,99.361,22.8Zm.811-9.1a2.448,2.448,0,0,0,.747,1.909,3.345,3.345,0,0,0,4.033,0,2.57,2.57,0,0,0,.708-1.953,2.654,2.654,0,0,0-.728-2.036,2.871,2.871,0,0,0-2.036-.679,2.7,2.7,0,0,0-2,.728A2.739,2.739,0,0,0,100.172,13.7ZM117.935,21V14.115a3.357,3.357,0,0,0-.674-2.329,2.72,2.72,0,0,0-2.09-.728,3.618,3.618,0,0,0-2.788.962,4.535,4.535,0,0,0-.884,3.12V21h-.967V10.385h.82l.186,1.455h.059a3.99,3.99,0,0,1,3.682-1.66q3.613,0,3.613,3.877V21Zm9.082.2a4.625,4.625,0,0,1-3.608-1.426,5.73,5.73,0,0,1-1.294-3.994,6.227,6.227,0,0,1,1.25-4.067,4.126,4.126,0,0,1,3.369-1.528,3.638,3.638,0,0,1,2.959,1.309,5.4,5.4,0,0,1,1.084,3.555v.781H123.13a5.022,5.022,0,0,0,1.021,3.34,3.592,3.592,0,0,0,2.866,1.152,8.89,8.89,0,0,0,1.6-.127,9.7,9.7,0,0,0,1.743-.547v.879a7.775,7.775,0,0,1-1.66.532A9.214,9.214,0,0,1,127.017,21.2Zm-.283-10.156a3.18,3.18,0,0,0-2.461,1.011,4.767,4.767,0,0,0-1.084,2.915h6.563a4.629,4.629,0,0,0-.8-2.886A2.641,2.641,0,0,0,126.734,11.039Zm11.552-.859a8.307,8.307,0,0,1,1.445.137l-.186.928a5.656,5.656,0,0,0-1.377-.166,2.674,2.674,0,0,0-2.227,1.152,4.7,4.7,0,0,0-.869,2.91V21h-.967V10.385h.82l.1,1.914h.068a4.5,4.5,0,0,1,1.4-1.646A3.271,3.271,0,0,1,138.286,10.18Z" transform="translate(3133 -585)"/>
    <path id="Path_384" data-name="Path 384" d="M16,0,0,31" transform="translate(3113.5 -586.5)" fill="none" stroke="#ddd296" stroke-width="2"/>
  </g>
</svg>
