<svg xmlns="http://www.w3.org/2000/svg" width="139.29" height="13.906" viewBox="0 0 139.29 13.906">
  <g id="JCLogo_path" transform="translate(-339.244 -43.377)">
    <g id="JCLogo_paths">
      <path id="Path_271" data-name="Path 271" d="M.244,15.533a3.932,3.932,0,0,0,.269,1.46A3.36,3.36,0,0,0,1.3,18.18a3.685,3.685,0,0,0,1.284.8,4.861,4.861,0,0,0,1.729.288,4.123,4.123,0,0,0,3.1-1.133,4.515,4.515,0,0,0,1.1-3.281V5.67H6.3v9.16a2.955,2.955,0,0,1-.483,1.846,1.8,1.8,0,0,1-1.509.615,2.173,2.173,0,0,1-1.035-.225,1.547,1.547,0,0,1-.64-.62,2.1,2.1,0,0,1-.249-.913ZM17.133,17.35a2.983,2.983,0,0,1-2.207-.83,3.1,3.1,0,0,1-.83-2.295V5.67H11.9v8.857a4.8,4.8,0,0,0,.625,2.466,4.286,4.286,0,0,0,1.8,1.67,6.108,6.108,0,0,0,2.808.6,6.078,6.078,0,0,0,2.8-.6,4.325,4.325,0,0,0,1.8-1.67,4.767,4.767,0,0,0,.63-2.466V5.67H20.161v8.555a3.1,3.1,0,0,1-.83,2.295A2.97,2.97,0,0,1,17.133,17.35ZM24.891,15.3a3.95,3.95,0,0,0,.278,1.377,3.757,3.757,0,0,0,.845,1.279,4.186,4.186,0,0,0,1.533.947,6.667,6.667,0,0,0,2.344.361,6.972,6.972,0,0,0,2.666-.474A4.09,4.09,0,0,0,34.369,17.4a3.711,3.711,0,0,0,.659-2.231A3.168,3.168,0,0,0,33.3,12.149a7.372,7.372,0,0,0-1.8-.679l-2.178-.537a2.851,2.851,0,0,1-1.387-.669,1.5,1.5,0,0,1-.459-1.108,1.688,1.688,0,0,1,.708-1.445,3.062,3.062,0,0,1,1.851-.518,3.306,3.306,0,0,1,1.445.283,2.2,2.2,0,0,1,.9.752,2.1,2.1,0,0,1,.352,1.035h2.129a3.545,3.545,0,0,0-.684-2.114,4.134,4.134,0,0,0-1.733-1.318,6.071,6.071,0,0,0-2.378-.454,6.179,6.179,0,0,0-2.393.454,4.142,4.142,0,0,0-1.758,1.333,3.477,3.477,0,0,0-.664,2.158,3.314,3.314,0,0,0,.459,1.8,3.436,3.436,0,0,0,1.2,1.157,5.92,5.92,0,0,0,1.6.635l2.188.547a3.788,3.788,0,0,1,1.592.7,1.507,1.507,0,0,1,.518,1.206,1.844,1.844,0,0,1-.332,1.094,2.111,2.111,0,0,1-.947.723,3.858,3.858,0,0,1-1.475.254,4.179,4.179,0,0,1-1.255-.171,2.833,2.833,0,0,1-.913-.464,2.247,2.247,0,0,1-.586-.684,1.962,1.962,0,0,1-.244-.82ZM42.737,19V7.564h3.916V5.67H36.624V7.564H40.54V19Zm8.393,0V5.67H48.914V19Zm5.688,0V9.4h.059L63.2,19h1.934V5.67h-2.08v9.57H62.98l-6.3-9.57H54.729V19Zm20.229-1.865H70.934V13.121H76.7V11.334H70.934v-3.8h6.113V5.67h-8.32V19h8.32Z" transform="translate(339 38)"/>
      <path id="Path_270" data-name="Path 270" d="M2.559,11.432A6.733,6.733,0,0,1,2.988,8.9a3.524,3.524,0,0,1,1.26-1.631A3.514,3.514,0,0,1,6.289,6.7,3.65,3.65,0,0,1,8.047,7.1,3.065,3.065,0,0,1,9.229,8.2a3.1,3.1,0,0,1,.449,1.587h1.416a4.224,4.224,0,0,0-1.343-3.13,4.592,4.592,0,0,0-1.519-.937,5.389,5.389,0,0,0-1.943-.337A5.075,5.075,0,0,0,3.5,6.124,4.643,4.643,0,0,0,1.743,8.219a7.947,7.947,0,0,0-.6,3.232v1.855a7.818,7.818,0,0,0,.6,3.188,4.526,4.526,0,0,0,1.753,2.065,5.2,5.2,0,0,0,2.808.723,5.393,5.393,0,0,0,2.48-.552,4.395,4.395,0,0,0,1.709-1.494,3.773,3.773,0,0,0,.625-2.134H9.688A2.7,2.7,0,0,1,9.243,16.6a2.925,2.925,0,0,1-1.191,1.021,3.979,3.979,0,0,1-1.753.366,3.577,3.577,0,0,1-2.051-.562,3.468,3.468,0,0,1-1.26-1.611,6.57,6.57,0,0,1-.43-2.5Zm12,7.568,1.426-4.16H21.1L22.524,19h1.5L19.243,5.68H17.836L13.051,19Zm4-11.553L20.7,13.658H16.381L18.52,7.447ZM31.288,5.68H26.61V19h1.426V13.57h3.457L34.052,19H35.7l-2.773-5.732a3.939,3.939,0,0,0,1.216-.659,3.43,3.43,0,0,0,.952-1.2,4.088,4.088,0,0,0,.371-1.831,4.2,4.2,0,0,0-.449-1.924,3.441,3.441,0,0,0-1.377-1.431A4.612,4.612,0,0,0,31.288,5.68Zm-3.252,6.582V6.979H31.1a3.091,3.091,0,0,1,2.109.684,2.53,2.53,0,0,1,.781,2.012,2.44,2.44,0,0,1-.752,1.909,3.193,3.193,0,0,1-2.207.679ZM43.626,5.68H38.948V19h1.426V13.57h3.457L46.39,19h1.65l-2.773-5.732a3.939,3.939,0,0,0,1.216-.659,3.43,3.43,0,0,0,.952-1.2,4.088,4.088,0,0,0,.371-1.831,4.2,4.2,0,0,0-.449-1.924A3.441,3.441,0,0,0,45.98,6.222,4.612,4.612,0,0,0,43.626,5.68Zm-3.252,6.582V6.979h3.066a3.091,3.091,0,0,1,2.109.684,2.53,2.53,0,0,1,.781,2.012,2.44,2.44,0,0,1-.752,1.909,3.193,3.193,0,0,1-2.207.679Z" transform="translate(423 38)" fill="#d8c66b"/>
      <path id="Path_184" data-name="Path 184" d="M2.307,1.255A2.047,2.047,0,0,1,4,2.245,2.8,2.8,0,0,1,4.535,3.92,2.027,2.027,0,0,1,3.491,5.593a2.965,2.965,0,0,1-1.729.584C.344,6.177-.5,4.91-.5,3.418A2.434,2.434,0,0,1,.572,1.727,2.478,2.478,0,0,1,2.307,1.255Z" transform="translate(474 50.929)" fill="#d8c66b"/>
    </g>
  </g>
</svg>
