<svg xmlns="http://www.w3.org/2000/svg" width="38" height="38" viewBox="0 0 38 38">
  <g id="Linkedin" transform="translate(-171 -200)">
    <g id="Group_183" data-name="Group 183">
      <rect id="Rectangle_227" data-name="Rectangle 227" width="38" height="38" transform="translate(171 200)" fill="none"/>
      <g id="Linkedin-2" data-name="Linkedin" transform="translate(174 203)">
        <g id="Group_4" data-name="Group 4" transform="translate(0 0)">
          <ellipse id="Ellipse_6" data-name="Ellipse 6" cx="15.678" cy="15.678" rx="15.678" ry="15.678" fill="#adacac"/>
          <path id="linkedin-icon-seeklogo.com" d="M0,6.8A1.779,1.779,0,0,1,.493,5.509,1.707,1.707,0,0,1,1.776,5a1.657,1.657,0,0,1,1.254.5,1.868,1.868,0,0,1,.493,1.346A1.74,1.74,0,0,1,3.044,8.1a1.711,1.711,0,0,1-1.3.516H1.733A1.631,1.631,0,0,1,.479,8.1,1.836,1.836,0,0,1,0,6.8ZM.183,20.494V10.04H3.312V20.494Zm4.862,0H8.174V14.656a2.481,2.481,0,0,1,.113-.845,2.269,2.269,0,0,1,.6-.9,1.435,1.435,0,0,1,1.008-.368q1.578,0,1.578,2.363v5.587H14.6V14.5a5.412,5.412,0,0,0-.986-3.514,3.211,3.211,0,0,0-2.607-1.2,3.139,3.139,0,0,0-2.833,1.737v.031H8.16l.014-.031V10.04H5.045q.028.5.028,3.114T5.045,20.494Z" transform="translate(8.914 1.367)" fill="#fff"/>
        </g>
      </g>
    </g>
  </g>
</svg>
