<svg id="Layer_1" data-name="Layer 1" xmlns="http://www.w3.org/2000/svg" viewBox="0 0 337.75 323.18"><defs><style>.cls-1{fill:#939598;}</style></defs><path class="cls-1" d="M42.42,148c.34.16.67.35,1,.51a4.44,4.44,0,0,1-2.62.21c10.37,4,23.91,1.41,32.65-2.86,3.17.13,6-1.12,6.27-2.82s-2-3.21-5.25-3.36a12.25,12.25,0,0,1-2-.62,57.82,57.82,0,0,0-16.34-5.66l3.62,1.47a25.07,25.07,0,0,0-5.52-.82c.21.31.48.62.7.93-6.14-2.2-14.53-1.25-18.7,2.05s-2.62,7.75,3.51,9.93Z" transform="translate(-31.41 -34.07)"/><path class="cls-1" d="M53.9,157.7c-3.65-1.08-7.16-2.22-10.68-3.4l-.7-.57.27,2.62.07-.17c3.25-2.24,8.65-3.24,13.62-3.89l1.78-.39a2.57,2.57,0,0,0,1.58-1.42c.4-1.26-1.16-2.43-3.49-2.63l-2.68-.2c-6.54-1.43-16.83-1.34-20.39,3.15-.81,1-.07,2.33.13,3.52-.22,1.74,2.26,3.22,5.51,3.29s6-1.27,6.24-3l1.67.34-1.3.65c.9-1.53,3.87-1.91,6.07-2.75l3.31-.46-1.92-4-1.72.56a5.58,5.58,0,0,1,.37.44,79.28,79.28,0,0,1-9.93,3.07l-4.5,1.54c-1.22.79-1.08,1.94.27,2.62l2,.85-.91-.5c4.63.85,9.51,1.32,14.08,2.23a2.18,2.18,0,0,0,2-.4C55,158.34,54.65,157.87,53.9,157.7Z" transform="translate(-31.41 -34.07)"/><path class="cls-1" d="M37.61,158.47a5.11,5.11,0,0,0-2.54-.53l-.45.33,1.47.67C37.15,159.43,37.68,159,37.61,158.47Z" transform="translate(-31.41 -34.07)"/><path class="cls-1" d="M34.62,158.27,34,158l.42.38.12,0Z" transform="translate(-31.41 -34.07)"/><path class="cls-1" d="M236.6,153.14c14.28,1.42,28.61,2.65,42.93,3.81.48,0,.9-.13.93-.38s-.32-.47-.77-.48c-14.33-1.2-28.59-2.44-42.87-3.85-.48,0-.88.13-1,.37S236.16,153.09,236.6,153.14Z" transform="translate(-31.41 -34.07)"/><path class="cls-1" d="M342,183.89c-.36.17-.36.43,0,.63a1.4,1.4,0,0,0,1.17.07.34.34,0,0,0,0-.64A1.42,1.42,0,0,0,342,183.89Z" transform="translate(-31.41 -34.07)"/><path class="cls-1" d="M337.61,203.35a29,29,0,0,0-5.63,1.08,1.53,1.53,0,0,1-.93-.08c.09.41-.31.75-1,.88-14.27,2.43-29.45,2.87-44.42,3.86a2.1,2.1,0,0,1-.68.91c-1.08.95-3.18,1.37-5.31,1.09l-1.6-.34-19.46-2.63a17,17,0,0,1-4.59.66c-5.67,1-11.35,1.93-17.15,2.64a1.23,1.23,0,0,1,.54,1c-.14.87-1.5,1.47-3.05,1.38l-2.36,0c2.24.29,4.49.6,6.72.93a3.88,3.88,0,0,1,.89.19c2.47.12,5,.23,7.5.26,22.14.15,43.09-2,64-4.6a1.36,1.36,0,0,1,1.16.16c.19.22.14.51-.25.6-6.64,1.77-12.86,4-19.26,6a132.21,132.21,0,0,1-20.4,4.87c-17.64,2.53-35,4.72-52.93,6.27-18.69-.62-36,.94-55.12,2.15-25.77,1.63-50,1.76-75.21,2-9.42.71-18.07-2.91-19.34-8-.73-3.11,1.39-6.09,5.27-8.12l-2.31,0L69,215.78a16.52,16.52,0,0,1-8.32-3.57l-2.59-2.14c-3.45-4.09-9-7.46-11.9-11.71l.61-1.62-.67-.47A8.14,8.14,0,0,1,41.88,192l.18-2a13.57,13.57,0,0,1,3.23-6.38,4.09,4.09,0,0,1,.58-2.42c-1.53-2-2.28-4.08-1.11-6.41-.92-.57-.78-1.43.29-1.93a4,4,0,0,1,1.28-.32h0A12.76,12.76,0,0,0,45,171.31c-.91-.16-1.43-.28-1.43-.28-2.41-.32-2.41-.32-4.5-.62a10.66,10.66,0,0,1-2.93-1.61c-2-3.47-2-3.47-1.75-5a5.07,5.07,0,0,1,.37-.44c-1.6-.48-1.71-.52-2.14-.67a4.37,4.37,0,0,1-.77-.57c-.08-.81-.08-.81-.36-1.1a2,2,0,0,1-.07-.61c.87-.92.87-.92.89-1.17a3,3,0,0,1,.49-.45l1.63-.45,2.27,2.07.48-.73.53,1-.31-.88,1.14.52-1.3-.76a17.86,17.86,0,0,0,3.75.24,7.84,7.84,0,0,0,2.17-.15,1.58,1.58,0,0,1-.1-.48c2.86.31,2.86.31,5.65.65a6.46,6.46,0,0,1,.66.57A1.81,1.81,0,0,1,50.7,160l1.47.13.31-.12V160l1.23-.43.26-.1h0l5.32-1.84c.87.1,1.67.24,2.44.4-.25-.13-.49-.26-.72-.4-.45-.28,0-1.05-.29-1.13-6.13-1.62-12.79-2.2-19.37-3-1.17.11-2.29-.34-2.47-1s.67-1.23,1.88-1.33A69.51,69.51,0,0,1,62.27,148a91.77,91.77,0,0,1,21.83,2.56c3.6.4,7.22.74,10.85,1.06l-.52-.39,2.82.61.31,0-2.13-1.43c-.5-.15-1-.29-1.48-.41-8.43-.56-16.08-2.78-24.24-4.12-4.38-.73-8.15-2.06-12.31-3-1.06-.07-1.81-.57-1.69-1.15s1.11-1,2.15-.9c13.83-1.14,29.64-.27,40.7,4.59a18.33,18.33,0,0,1,7,1.33l.11,0-1.55-1.2c1.89.3,2.89,1.29,4.61,1.71l-.63-1.62c9.3,1,19.36.69,27.94,3.09.35,0,.67.1,1,.16a44.59,44.59,0,0,1,11.89-2.2l-4.43-.58a41.22,41.22,0,0,1,9.8-.95c9.26.29,19.56,3,24.35,7.36,17.91-.06,35.85.05,53.75-.28.93,0,1.74.34,1.89.82s-.55.92-1.48.95c-6.43.58-12.9,1-19.39,1.31s-13,.5-19.52.72c5.42.55,10.86,1.12,16.33,1.63s11,.9,16.54,1.21l4.29,0a22,22,0,0,1,4.2.41c7.11.27,14,.66,21,.89s14,.33,21.26.1c6.22-.22,12-.44,17.89-.7s11.67-.61,17.88-.95c8.73-.52,17.08-1.08,25.4-1.29a238.38,238.38,0,0,1,25.15.44c2.29,0,4.33,1.06,4.51,2.31s-1.56,2.24-3.85,2.22c-36,1.14-71.23,3.57-108.48,1.32l-11.91-.74a1.45,1.45,0,0,1,.08.5,2.39,2.39,0,0,1-1.08,1.76c4.46.36,9,.83,13.45,1.38,6.32-.44,12.64-.82,19.05-.94a151.09,151.09,0,0,1,19.59.79c9.17,1,17.4,3,25.82,4.83L337.2,171c5.41,0,10.85-.11,16.31,0a1.11,1.11,0,0,1,1,.35c.14.25-.12.47-.56.52-7.58,1-15.32,1.62-23.11,2.11a3.23,3.23,0,0,1,1.66,3c-.17,1.11-1.18,2.05-2.67,2.66l5.24.44c1.08.11,1.9.61,1.83,1.16s-.95,1-2,.9l-21.35-1.62c-8.58.07-17.13.16-25.71.12a6,6,0,0,1,2.33,2.83v0l4,.13a427.14,427.14,0,0,1,74.12.59c.49,0,.88.27.87.53s-.41.45-.85.4Q357,184,345.79,183.51h0c.3.18.33.47,0,.63a1.51,1.51,0,0,1-1.18-.06c-.33-.2-.28-.48,0-.63-14-.54-27.89-.34-41.64.43,12.71.49,25.41,1.12,38.05,2.5l4.23-.68a1.19,1.19,0,0,1,1,.4c.09.22-.21.46-.61.5l-1.18.16c2.4.26,4.17,1.47,4,2.8s-2.37,2.27-4.85,2.05c-6.68-.18-13.33-.51-20-.86l-2.17.1-2.21.51c10.3,1.15,20.55,2.53,30.73,3.93.88.06,1.6.5,1.59,1s-.76.83-1.64.78c-18.15.64-36.47.74-54.84.6l-18.5,5.2c.77.07,1.55.14,2.33.18,19.87,1,37.1-3.82,56.46-3.72.49,0,.87.21.92.45s-.31.46-.8.43c-9.45.14-18.17,1.64-27.57,2.46-7.79.7-15.2,1.4-22.45,2.54,14.69.24,28.9-1.47,43.51-1.65a2.54,2.54,0,0,1,1.66.36.59.59,0,0,1,.38-.31,39.16,39.16,0,0,1,5.93-1.12,1.09,1.09,0,0,1,1.06.32C338.3,203,338.05,203.24,337.61,203.35ZM81.83,166.9l-.36-.29,1.29.49L84.58,169ZM59.2,174.17h0l-1-1.08Zm145.16-15.38a158.61,158.61,0,0,1-23.22-2.35l5.66-.17C192.64,157,198.49,157.82,204.36,158.79Zm-137.8.85a24.16,24.16,0,0,1,5.19,3.5,19.35,19.35,0,0,1,4.19-.29c3.84.13,7.58.38,11.27.73-.48-.68.4-.6.85-.68l1.39-.17c-3.93-.48-7.88-1-11.89-1.58C73.94,160.64,70,160.38,66.56,159.64Zm-27.43,2.92c-.11-.08-.21-.16-.34-.24l.72-1ZM38,164.31l.56.14C38.37,164.83,38.18,164.69,38,164.31Zm5.18,1.22a2.88,2.88,0,0,0-.74-.54Zm4,30,1.93-5.14-2.11,4.94Z" transform="translate(-31.41 -34.07)"/><path class="cls-1" d="M221.34,108.55c.69,6.86.3,13.92-.13,21.16-.26,3.62-.64,7.27-1.08,10.95s-.78,7.38-1.17,11.09c-1.68,14.81-2.74,29.81-.28,43.34.83,4.06,1.7,8.15,2.38,12.26s1.27,8.23,1.94,12.37,1.16,8.29,1.62,12.45,1.07,8.31,1.5,12.48l.62,6.24c.23,2.07.47,4.15.7,6.22.45,4.14.85,8.28,1.23,12.39s.91,8.19,1.36,12.25c.22,2,.43,4,.65,6.05s.51,4,.77,6c-3.6.46-9.35-1.56-10.81,1.35-4,11.44-11.2,12.54-18.4,13.53-3.6.5-1.07-8.3-4.31-5.05a64.74,64.74,0,0,0-3-13c-1.26-3.38-2.76-4.64-4.13-.23-3.34,3.24,1.78,14-3.28,17.52s-11.16-1.38-16.19,2.21c.32,2.89,1.23,8.62,1.68,11.49-3.15,3.43-11.23-1.26-10.78,1.64a28.31,28.31,0,0,0-.7,7.33,48.18,48.18,0,0,0,.84,7.94c1,5.45,2.49,11.18,3.55,17-1.78.35-3.43,1.39-5,1.7a3.3,3.3,0,0,1-2.28-.28,6.08,6.08,0,0,1-2.18-2.61c-11.61-51-19.14-103.9-20.19-157.26s4.28-107,17.84-158c4.19-11.4,9.46-.94,13,8.79-1.19-3.26,4.15-2.16,3-5.41,2.67.56,5.93,2.75,8.46,6.24a21.22,21.22,0,0,1,3.08,6.17,25.43,25.43,0,0,1,1.07,7.92c.47-2.85,1.08-5.66,1.65-8.49,2.36-2.46,5.34,1.07,8.91,1.77-.57,2.8-1.15,5.58.65,5.92L201,63.32c.56-2.76,1.69-8.27,2.25-11-.56,2.75-1.13,5.51.65,5.86l7.13,1.42c.58,5.75-4.32,13.32-3.54,19.12l5.37.92c2.79-5.11,2.32-13.59,3.51-19,1.23,3.06,3,3.4,6.58,4.09a23.08,23.08,0,0,1-.86,6.09c-.53,2-1.22,3.94-1.8,5.91-1.14,4-2,8,.18,12.47.37-2.69.86-5.37,1.34-8a9,9,0,0,1,3.16,6,19.75,19.75,0,0,1-.68,7.13C223.14,99.22,220.88,104.38,221.34,108.55Z" transform="translate(-31.41 -34.07)"/></svg>