<svg id="Layer_1" data-name="Layer 1" xmlns="http://www.w3.org/2000/svg" viewBox="0 0 256.09 215.86"><defs><style>.cls-1{fill:#eae4cc;}</style></defs><path class="cls-1" d="M71,97c.94-.77,1.17-2.35,2.65-1.5,4.22,3.08,3.87,8.84,8.1,11.92l1.71-1c2,3.52,3.87,7.32,6,11.08q8,8.43,16.34,16.37c.4-.63.83-1.13,1.53-.74,2.5,2,4.92,5.79,7.81,9.34l1.59,1.28a2.53,2.53,0,0,0,1.63-.46c1.33,1.58,2.41,3.08,3.39,4.49,17.8,14.17,36.4,28.06,56.29,43.28a97.76,97.76,0,0,1,13.67,8.42c5.57,5,11,12.85,15.78,18.33,4.34-5.49,18.79,5.19,21.54-2.15,3.16,3.64,7.9,9.12,9.6,8.06,5.07-3.17,12.55-5,23.83,1.9,4,3.1,7.44,10.4,9.51,10.87,3.27.75-1.39-7.56,1.88-6.81C250.06,201,224,176.46,199,148.7c-5.4-3.68-22.75-21.22-40.32-40.13s-35.37-39.18-42.12-47.93l-1.38-1.45c-3.81-4.66-8.23-9.64-12.75-14.23A97.65,97.65,0,0,0,89,33.34c-4.1-2.3-8.31-4.3-12.26-6.43.21,2.2.43,4.34.56,6.31-2.68-3.56-4.9-7-6.81-7.63-3.61-2.82-5.39-2.91-6.71-1.5s-1.92,4.37-2.83,7.26c-.11,1.72-1.3,2.25-2.42,2.95s-2.13,1.54-1.68,4c-1.81-2.79-2.7-4.21-4.33-7.16-.94.32.59,2.47,2,4.36S57,39.18,55,39.15c-1.25-3.07-4.24-5.53-5.83-8.65-.89,1.16.4,4,1.73,6.45s2.62,4.7,1.4,5.24c-.79-.59-1.48-3.12-2.25-5.38s-1.66-4.23-3.24-3.75c-.66.21,1.08,3.41,2,4.91-3.42-4.32-6.31-7.91-8.27-9-1-.52-1.74-.39-2.17.63a6.47,6.47,0,0,0-.34,2.23,21.72,21.72,0,0,0,.4,3.63,31.57,31.57,0,0,1-1.24-3c-.39-1.1-.73-2.29-1.1-3.46s-.69-2.4-1.07-3.54a23.78,23.78,0,0,0-1.2-3.28.1.1,0,0,1,0,.05c.31,1,.6,2.52,1,3.94a28.07,28.07,0,0,0,1.13,3.71c-.94-2.23-1.78-4.57-2.53-7-.3.52-.58,1.09-.85,1.69a22.24,22.24,0,0,0,1.39,5.62c-.61-1.55-1.23-3.09-1.77-4.72a24.77,24.77,0,0,0-1.22,5.2c.46,6.46.76,13,2.39,15.75,6.2,11.21,13.17,20,19.13,27.7S64.68,89.53,71,97Z" transform="translate(-21 -22.22)"/><path class="cls-1" d="M56.28,156c10.37-9.83,23.32-18.28,35.94-26.88s25-17.42,34-27.6l8.08-9.28c2.74-3.06,5.52-6.21,8.36-9.31,5.69-6.29,11.59-12.56,17.7-18.94s12.4-12.7,18.91-19c3.2-3.14,6.55-6.27,9.82-9.36s6.65-6.16,10.08-9.16c1.81,2,2.29,7.07,5.44,6.1C210.37,30.14,214.23,30,217,31s4.55,3.06,6.31,5.14-6.63,5.67-2.65,5.84c-6.56,5.72-16.17,16.48-8,12.65,3.91.07,10.64-9.62,15.51-8.34s3.2,8,8,9.3L240.4,52l4.26-3.49c3.83.4,3.06,8.06,5.16,6.35,7.95-3,15.46-10.44,24.16-16.08.74,1.15,2.08,1.9,2.73,2.9a2.08,2.08,0,0,1,.3,1.76,5.55,5.55,0,0,1-1.41,2.47c-18,12.74-34.87,29-52.11,46.63s-35,36.57-55.47,54.59c-20.32,17.86-41.64,33.52-62.66,48-10.53,7.25-20.92,14.2-31.41,21.11S53,229.9,42.39,236.52c-10.17,5.32-6.2-4-1.46-12.2-1.58,2.73-3.89-.64-5.47,2.1C33.15,223,34,214.21,42.63,206.64l-7.05,4.83c-3.12.49-2.31-3.37-3.85-5.62,2.35-1.61,4.7-3.22,3.93-4.34L32.58,197c-2.35,1.61-7,4.84-9.4,6.44,2.35-1.6,4.7-3.21,3.93-4.34L24,194.62c3.93-4.35,12.52-6.93,16.45-11.28L38.17,180c-5.47,2.09-11.75,8.05-16.45,11.27,1.59-2.74.82-3.86-.72-6.11,6.27-5.95,15.63-7.41,20.37-15.61l-7,4.83C35.17,165.52,50,162,56.28,156Z" transform="translate(-21 -22.22)"/></svg>